<svg width="200" height="200" viewBox="0 0 200 200" fill="none" xmlns="http://www.w3.org/2000/svg">
<rect width="200" height="200" rx="15" fill="white"/>
<path d="M30.8 157C28.6 157 26.75 156.25 25.25 154.75C23.75 153.25 23 151.4 23 149.2V47.65C23 45.35 23.75 43.5 25.25 42.1C26.75 40.6 28.6 39.85 30.8 39.85H57.8C65.3 39.85 71.95 41.45 77.75 44.65C83.55 47.75 88.05 52.05 91.25 57.55C94.55 63.05 96.2 69.45 96.2 76.75C96.2 83.55 94.55 89.6 91.25 94.9C88.05 100.2 83.55 104.35 77.75 107.35C71.95 110.35 65.3 111.85 57.8 111.85H38.6V149.2C38.6 151.4 37.85 153.25 36.35 154.75C34.95 156.25 33.1 157 30.8 157ZM93.05 157C91.65 157 90.35 156.7 89.15 156.1C88.05 155.5 87.1 154.55 86.3 153.25L59.3 109.75L74.45 105.4L99.05 145C100.85 147.9 101.1 150.65 99.8 153.25C98.5 155.75 96.25 157 93.05 157ZM38.6 97.45H57.8C62.4 97.45 66.45 96.6 69.95 94.9C73.45 93.1 76.2 90.65 78.2 87.55C80.2 84.35 81.2 80.75 81.2 76.75C81.2 72.35 80.2 68.45 78.2 65.05C76.2 61.65 73.45 59 69.95 57.1C66.45 55.2 62.4 54.25 57.8 54.25H38.6V97.45Z" fill="black"/>
<path d="M147.05 157.6C138.75 157.6 131.35 155.85 124.85 152.35C118.45 148.75 113.4 143.85 109.7 137.65C106.1 131.35 104.3 124.15 104.3 116.05C104.3 107.85 106 100.65 109.4 94.45C112.9 88.15 117.7 83.25 123.8 79.75C129.9 76.15 136.9 74.35 144.8 74.35C152.6 74.35 159.3 76.1 164.9 79.6C170.5 83 174.75 87.75 177.65 93.85C180.65 99.85 182.15 106.8 182.15 114.7C182.15 116.6 181.5 118.2 180.2 119.5C178.9 120.7 177.25 121.3 175.25 121.3H114.8V109.3H174.8L168.65 113.5C168.55 108.5 167.55 104.05 165.65 100.15C163.75 96.15 161.05 93 157.55 90.7C154.05 88.4 149.8 87.25 144.8 87.25C139.1 87.25 134.2 88.5 130.1 91C126.1 93.5 123.05 96.95 120.95 101.35C118.85 105.65 117.8 110.55 117.8 116.05C117.8 121.55 119.05 126.45 121.55 130.75C124.05 135.05 127.5 138.45 131.9 140.95C136.3 143.45 141.35 144.7 147.05 144.7C150.15 144.7 153.3 144.15 156.5 143.05C159.8 141.85 162.45 140.5 164.45 139C165.95 137.9 167.55 137.35 169.25 137.35C171.05 137.25 172.6 137.75 173.9 138.85C175.6 140.35 176.5 142 176.6 143.8C176.7 145.6 175.9 147.15 174.2 148.45C170.8 151.15 166.55 153.35 161.45 155.05C156.45 156.75 151.65 157.6 147.05 157.6Z" fill="#00A0A0"/>
</svg>
